<svg version="1.1" xmlns="http://www.w3.org/2000/svg" viewBox="0 0 758.8906680869277 538.085757351806" width="758.8906680869277" height="538.085757351806">
  <!-- svg-source:excalidraw -->
  
  <defs>
    <style class="style-fonts">
      @font-face {
        font-family: "Virgil";
        src: url("https://excalidraw.com/Virgil.woff2");
      }
      @font-face {
        font-family: "Cascadia";
        src: url("https://excalidraw.com/Cascadia.woff2");
      }
    </style>
    
  </defs>
  <rect x="0" y="0" width="758.8906680869277" height="538.085757351806" fill="#ffffff"></rect><g stroke-linecap="round"><g transform="translate(129.53368282426595 151.87748786252632) rotate(0 80.21027897245324 5.659340583695894)"><path d="M0.58 0.43 C11.77 0.47, 40.31 -0.52, 67.05 1.38 C93.78 3.27, 145.51 9.76, 161 11.8 M-0.58 -0.39 C10.51 -0.16, 39.55 -2.46, 66.35 -0.3 C93.16 1.86, 144.69 10.59, 160.25 12.55" stroke="#1e1e1e" stroke-width="1" fill="none"></path></g><g transform="translate(129.53368282426595 151.87748786252632) rotate(0 80.21027897245324 5.659340583695894)"><path d="M131.59 19.44 C140.81 16.77, 146.15 13.3, 161.47 12 M130.92 18.54 C142.82 16.33, 153.3 13.85, 160.93 12.12" stroke="#1e1e1e" stroke-width="1" fill="none"></path></g><g transform="translate(129.53368282426595 151.87748786252632) rotate(0 80.21027897245324 5.659340583695894)"><path d="M134.56 -0.87 C143.1 2.41, 147.57 4.86, 161.47 12 M133.89 -1.76 C144.7 3.7, 154.05 8.89, 160.93 12.12" stroke="#1e1e1e" stroke-width="1" fill="none"></path></g></g><mask></mask><g stroke-linecap="round"><g transform="translate(280.8720075865822 347.79349428291573) rotate(359.48799161109736 -71.19571750751618 11.333089446791831)"><path d="M0.27 1.19 C-10.99 4.73, -42.79 19.84, -66.61 21.67 C-90.43 23.5, -130.18 13.86, -142.66 12.15 M-1.05 0.77 C-12.46 3.95, -43.83 18.48, -67.05 20.07 C-90.27 21.66, -128.01 11.54, -140.36 10.29" stroke="#1e1e1e" stroke-width="1" fill="none"></path></g><g transform="translate(280.8720075865822 347.79349428291573) rotate(359.48799161109736 -71.19571750751618 11.333089446791831)"><path d="M-108.84 6.66 C-120.3 5.2, -131.6 9.18, -140.09 10.03 M-111.04 4.57 C-116.89 5.96, -125.03 8.36, -140.55 9.37" stroke="#1e1e1e" stroke-width="1" fill="none"></path></g><g transform="translate(280.8720075865822 347.79349428291573) rotate(359.48799161109736 -71.19571750751618 11.333089446791831)"><path d="M-112.39 26.87 C-122.58 17.77, -132.54 14.11, -140.09 10.03 M-114.58 24.78 C-119.59 21.39, -126.9 19.03, -140.55 9.37" stroke="#1e1e1e" stroke-width="1" fill="none"></path></g></g><mask></mask><g stroke-linecap="round" transform="translate(294.49070470802144 87.60002136230469) rotate(0 227.19998168945312 175.69366134281972)"><path d="M7.86 8.16 C7.86 8.16, 7.86 8.16, 7.86 8.16 M7.86 8.16 C7.86 8.16, 7.86 8.16, 7.86 8.16 M3.66 19.09 C5.6 14.03, 10.41 9.14, 18.1 2.48 M3.66 19.09 C7.84 15.51, 11.22 10.51, 18.1 2.48 M2.75 26.24 C9.39 17.92, 18.44 9.71, 24.4 1.33 M2.75 26.24 C7.76 19.91, 12.66 15.09, 24.4 1.33 M2.48 32.64 C14.83 21.54, 25.13 5.89, 30.7 0.18 M2.48 32.64 C9.8 23.87, 17.85 14.17, 30.7 0.18 M2.88 38.28 C11.81 27.62, 19.28 18, 34.37 2.05 M2.88 38.28 C11.2 29.39, 18.99 19.14, 34.37 2.05 M2.62 44.68 C9.23 36.84, 20.07 24.87, 39.36 2.41 M2.62 44.68 C10.55 36.68, 16.66 26.62, 39.36 2.41 M2.36 51.07 C16.17 34.48, 29.53 17.6, 45 2.02 M2.36 51.07 C16.92 33.1, 33.13 15.11, 45 2.02 M2.75 56.72 C18.07 37.24, 34.55 18.71, 49.99 2.38 M2.75 56.72 C17.87 38.53, 34.54 21.01, 49.99 2.38 M2.49 63.11 C17.27 45.33, 31.62 29.79, 55.63 1.98 M2.49 63.11 C17.9 46.44, 33.53 28.32, 55.63 1.98 M2.88 68.76 C22.25 45.87, 39.52 27.54, 60.62 2.34 M2.88 68.76 C23.73 44.18, 45.08 19.81, 60.62 2.34 M2.62 75.16 C21.84 55.92, 38.41 35.17, 66.26 1.95 M2.62 75.16 C19.53 55.05, 36.41 36, 66.26 1.95 M2.36 81.55 C23.55 59.35, 42.72 37.76, 71.25 2.31 M2.36 81.55 C17.24 63.51, 34.47 47.12, 71.25 2.31 M2.76 87.2 C24.2 62.55, 41.74 41.7, 76.89 1.91 M2.76 87.2 C18.47 69.53, 33.19 52.61, 76.89 1.91 M2.49 93.59 C28.72 61.12, 58.49 28.48, 81.88 2.27 M2.49 93.59 C30.16 61.65, 56.37 31.43, 81.88 2.27 M2.23 99.99 C20.51 79.8, 39.92 54.6, 87.52 1.88 M2.23 99.99 C25.21 73.78, 47 49.26, 87.52 1.88 M2.63 105.64 C25.24 81.51, 43.41 56.97, 92.51 2.24 M2.63 105.64 C33.38 71.42, 64.2 36.53, 92.51 2.24 M2.37 112.03 C22.58 86.22, 47.08 61.93, 98.15 1.85 M2.37 112.03 C29.26 83.34, 54.33 53.99, 98.15 1.85 M2.76 117.68 C39.9 76.17, 76.49 32.98, 103.14 2.21 M2.76 117.68 C25.24 89.64, 51.27 60.48, 103.14 2.21 M2.5 124.07 C43.34 76.35, 83.76 28.8, 108.78 1.81 M2.5 124.07 C39.85 81.34, 76.96 37.52, 108.78 1.81 M2.24 130.47 C28.72 99.7, 58.69 66.54, 113.77 2.17 M2.24 130.47 C26.23 103.23, 49.36 76.25, 113.77 2.17 M2.63 136.11 C41.82 93.92, 79.23 51.18, 119.41 1.78 M2.63 136.11 C36.6 97.61, 72.32 57.05, 119.41 1.78 M2.37 142.51 C36.16 107.5, 68.57 68.96, 124.4 2.14 M2.37 142.51 C48.45 88.28, 96.41 32.91, 124.4 2.14 M2.11 148.91 C41.53 102.21, 87.58 49.67, 130.04 1.74 M2.11 148.91 C46.33 96.44, 91.31 46.31, 130.04 1.74 M2.5 154.55 C37.15 118.76, 69.68 78.65, 135.03 2.1 M2.5 154.55 C41.57 109.84, 82.16 63.7, 135.03 2.1 M2.24 160.95 C56.83 99.57, 107.42 39.41, 140.67 1.71 M2.24 160.95 C38.11 121.92, 71.37 82.12, 140.67 1.71 M2.64 166.59 C57.6 102.79, 111.97 40.66, 145.66 2.07 M2.64 166.59 C37.88 128.6, 70.29 89.22, 145.66 2.07 M2.38 172.99 C52.74 117.97, 101.69 61.5, 150.65 2.43 M2.38 172.99 C58.29 108.4, 114.77 42.11, 150.65 2.43 M2.11 179.39 C36.53 141.66, 69.56 101.33, 156.29 2.03 M2.11 179.39 C38.61 134.5, 76.66 91.75, 156.29 2.03 M2.51 185.03 C50.09 132.08, 95.9 76.85, 161.28 2.39 M2.51 185.03 C40.86 143.64, 76.64 102.07, 161.28 2.39 M2.25 191.43 C54.14 132.32, 104.65 74.38, 166.92 2 M2.25 191.43 C62.16 121.12, 122.39 50.53, 166.92 2 M2.64 197.07 C50.67 142.31, 96.75 84.74, 171.91 2.36 M2.64 197.07 C57.37 133.36, 112.84 69.06, 171.91 2.36 M2.38 203.47 C67.53 129.29, 130.9 54.38, 177.55 1.96 M2.38 203.47 C40.67 160.87, 76.83 118.79, 177.55 1.96 M2.12 209.87 C72.25 129.43, 139.69 52.4, 182.54 2.32 M2.12 209.87 C56.75 147.12, 112.03 83.52, 182.54 2.32 M2.51 215.51 C59.85 150.7, 113.98 89.91, 188.18 1.93 M2.51 215.51 C66.56 142.79, 130.65 69.02, 188.18 1.93 M2.25 221.91 C71.48 143.57, 138.84 66.54, 193.17 2.29 M2.25 221.91 C47.65 168.7, 94.73 115.3, 193.17 2.29 M1.99 228.31 C72.76 144.01, 143.41 61.06, 198.81 1.9 M1.99 228.31 C66.43 155.33, 129.24 82.66, 198.81 1.9 M2.39 233.95 C47.99 181.49, 96.42 127.39, 203.8 2.26 M2.39 233.95 C63.35 165.84, 122.83 97.2, 203.8 2.26 M2.12 240.35 C52.77 182.82, 100.42 126.4, 209.44 1.86 M2.12 240.35 C55.65 179.31, 110.51 116.34, 209.44 1.86 M2.52 245.99 C76.69 162.67, 149.19 77.52, 214.43 2.22 M2.52 245.99 C65.77 173.41, 130.42 99.51, 214.43 2.22 M2.26 252.39 C73.06 168.63, 146.67 85.74, 220.07 1.83 M2.26 252.39 C57.69 189.53, 113.64 124.7, 220.07 1.83 M2 258.79 C66.92 186.69, 128.43 115.79, 225.06 2.19 M2 258.79 C80.26 167.79, 159.3 77.27, 225.06 2.19 M2.39 264.43 C64.13 195.53, 124.86 122.79, 230.7 1.79 M2.39 264.43 C85.96 166.34, 171.32 68.89, 230.7 1.79 M2.13 270.83 C73.48 187.99, 146.81 104.67, 235.69 2.15 M2.13 270.83 C58.39 207.59, 115.04 142.67, 235.69 2.15 M2.52 276.47 C58.1 211.15, 113.19 146.81, 241.33 1.76 M2.52 276.47 C60.61 212.22, 118.61 146.13, 241.33 1.76 M2.26 282.87 C98.4 168.89, 196.75 57.73, 246.32 2.12 M2.26 282.87 C99.89 172.03, 197.66 60.15, 246.32 2.12 M2 289.27 C100.66 175.81, 199.21 62.19, 251.96 1.72 M2 289.27 C70.56 211.92, 138.77 133.91, 251.96 1.72 M2.4 294.91 C95.14 188.29, 190.21 79.55, 256.95 2.08 M2.4 294.91 C90.1 192.24, 179.79 89.28, 256.95 2.08 M2.13 301.31 C81.47 211.3, 157.97 122.75, 262.59 1.69 M2.13 301.31 C65.8 226.78, 130 153.07, 262.59 1.69 M1.87 307.71 C87.34 208.22, 175.02 109.23, 267.58 2.05 M1.87 307.71 C77.22 220.89, 153.11 132.57, 267.58 2.05 M2.27 313.35 C70.59 235.48, 140.49 153.83, 272.56 2.41 M2.27 313.35 C86.8 217.21, 170.97 119.83, 272.56 2.41 M1.35 320.5 C74.99 236.74, 147.13 153, 278.21 2.01 M1.35 320.5 C75.87 234.85, 149.74 150.07, 278.21 2.01 M1.74 326.14 C107.46 202.53, 215.37 80.35, 283.19 2.37 M1.74 326.14 C112.05 197.53, 223.95 69.46, 283.19 2.37 M2.79 331.03 C71.26 251.28, 140.38 171.86, 288.84 1.98 M2.79 331.03 C68.59 255.91, 134.72 179.24, 288.84 1.98 M4.5 335.17 C106.7 220.86, 206.82 104.43, 293.82 2.34 M4.5 335.17 C118.29 204.2, 231.95 73.55, 293.82 2.34 M6.21 339.3 C64.76 270.24, 125.76 200.1, 299.47 1.94 M6.21 339.3 C116.93 210.97, 228.57 82.03, 299.47 1.94 M8.57 342.68 C73.04 272.18, 135.9 199.94, 304.45 2.3 M8.57 342.68 C118.64 217.58, 228.19 91.58, 304.45 2.3 M10.93 346.06 C122.62 215.72, 235.64 86.85, 310.1 1.91 M10.93 346.06 C130.76 210.32, 248.9 73.76, 310.1 1.91 M14.61 347.93 C76.68 273.63, 139.58 201.02, 315.08 2.27 M14.61 347.93 C123.21 223.15, 232.13 96.91, 315.08 2.27 M18.28 349.8 C94.24 261.63, 170.05 174.31, 320.73 1.88 M18.28 349.8 C87.78 271.88, 156.24 193.03, 320.73 1.88 M23.27 350.16 C132.9 226.21, 239.32 102, 325.71 2.24 M23.27 350.16 C140.89 216.24, 257.55 81.23, 325.71 2.24 M27.6 351.27 C89.85 277.97, 154.63 204.13, 331.36 1.84 M27.6 351.27 C117.24 249.22, 205.89 147.13, 331.36 1.84 M32.59 351.63 C106.88 267.6, 180.47 182.82, 336.34 2.2 M32.59 351.63 C99.05 273.72, 166.8 195.18, 336.34 2.2 M37.58 351.99 C132.74 242.81, 226.76 134.14, 341.99 1.81 M37.58 351.99 C126.36 249.88, 213.97 148.42, 341.99 1.81 M43.22 351.6 C113.66 269.66, 186.36 188.64, 346.97 2.17 M43.22 351.6 C112.07 272.66, 180.33 193.46, 346.97 2.17 M48.21 351.96 C134.12 253.04, 219.42 153.7, 352.62 1.77 M48.21 351.96 C164.05 218.9, 280 85.53, 352.62 1.77 M53.85 351.56 C139.23 254.09, 225.3 154.02, 357.6 2.13 M53.85 351.56 C152.74 239.86, 250.18 127.74, 357.6 2.13 M58.84 351.92 C161.41 232.35, 264.67 114.24, 363.25 1.74 M58.84 351.92 C122.3 279.92, 186.57 206.97, 363.25 1.74 M64.48 351.53 C160.56 241.43, 255.88 130.72, 368.23 2.1 M64.48 351.53 C129.79 276.99, 193.1 204.4, 368.23 2.1 M69.47 351.89 C180.61 222.24, 292.24 95.11, 373.88 1.7 M69.47 351.89 C152.98 255.19, 237.29 158.03, 373.88 1.7 M75.11 351.49 C146.52 270.72, 217.36 188.31, 378.86 2.06 M75.11 351.49 C183.9 227.93, 292.73 102.77, 378.86 2.06 M80.1 351.85 C184.26 234.44, 286.54 116.02, 383.85 2.42 M80.1 351.85 C191.64 221.07, 304.39 91.06, 383.85 2.42 M85.74 351.46 C181.76 240.09, 276.86 129.81, 389.49 2.03 M85.74 351.46 C149.24 276.95, 213.42 203.21, 389.49 2.03 M90.73 351.82 C181.69 246.99, 272.4 143.15, 394.48 2.39 M90.73 351.82 C193.72 232.37, 297.6 113.12, 394.48 2.39 M96.37 351.42 C164.73 270.16, 232.85 191.57, 400.12 1.99 M96.37 351.42 C212.94 216.35, 329.86 82.32, 400.12 1.99 M101.36 351.79 C213.3 222.83, 325.85 92.81, 405.11 2.35 M101.36 351.79 C196.19 242.82, 291.54 132.67, 405.11 2.35 M106.34 352.15 C169.42 279.82, 232.34 206.94, 410.75 1.96 M106.34 352.15 C185.65 260.48, 264.11 170.01, 410.75 1.96 M111.99 351.75 C221.2 226.92, 329.94 102, 415.74 2.32 M111.99 351.75 C199.62 253.33, 286.15 154.02, 415.74 2.32 M116.97 352.11 C200.16 258.25, 282.48 163.57, 422.7 0.42 M116.97 352.11 C237.21 213.46, 358.6 74.05, 422.7 0.42 M122.62 351.72 C225.26 231.24, 329.45 112.41, 427.68 0.78 M122.62 351.72 C221.79 237.12, 320.39 124.07, 427.68 0.78 M127.6 352.08 C190.31 279.03, 253.65 205.97, 432.01 1.89 M127.6 352.08 C226.17 238.25, 325.18 124.76, 432.01 1.89 M133.25 351.68 C217.33 254.45, 301.42 158, 437 2.25 M133.25 351.68 C247.26 220.45, 359.83 90.86, 437 2.25 M138.23 352.04 C258.32 212.78, 379.46 72.7, 440.68 4.12 M138.23 352.04 C243.16 231.51, 348.17 111.06, 440.68 4.12 M143.88 351.65 C204.45 281.11, 266.49 210.06, 443.7 6.74 M143.88 351.65 C215.48 269.53, 287.16 187.59, 443.7 6.74 M148.86 352.01 C266.87 219.09, 382.28 86.37, 447.37 8.61 M148.86 352.01 C249.24 237.38, 349.3 123.13, 447.37 8.61 M154.51 351.61 C224.89 271.23, 294.94 191.59, 449.73 11.99 M154.51 351.61 C215.46 280.51, 277.76 209, 449.73 11.99 M159.49 351.97 C249.39 248.02, 340.71 144.3, 451.44 16.13 M159.49 351.97 C256.35 240.41, 354.13 127.84, 451.44 16.13 M165.14 351.58 C270.27 227.65, 376.23 106.55, 453.8 19.51 M165.14 351.58 C234.88 271.53, 305.74 190.77, 453.8 19.51 M170.12 351.94 C245.79 264.97, 322.21 177.65, 454.85 24.39 M170.12 351.94 C271.31 232.3, 374.39 113.9, 454.85 24.39 M175.77 351.54 C250.87 263.83, 326.7 176.78, 455.25 30.04 M175.77 351.54 C278.06 234.93, 381.01 116.58, 455.25 30.04 M180.75 351.9 C275.92 240.92, 372.72 130.06, 456.95 34.17 M180.75 351.9 C237.2 285.66, 294.06 220.95, 456.95 34.17 M186.4 351.51 C266.02 260.55, 345.05 168.65, 456.69 40.57 M186.4 351.51 C261.26 263.44, 336.66 176.71, 456.69 40.57 M191.38 351.87 C248.81 287.67, 306.54 222.46, 457.09 46.21 M191.38 351.87 C252.92 282.58, 315.03 211.61, 457.09 46.21 M197.03 351.47 C263.81 274.39, 331.73 196.16, 456.83 52.61 M197.03 351.47 C289.06 245.1, 381.22 140.94, 456.83 52.61 M202.01 351.83 C280.53 262.27, 359.06 172.58, 457.22 58.25 M202.01 351.83 C294.59 243.39, 388.18 136.81, 457.22 58.25 M207.66 351.44 C277.47 269.97, 346.02 191.89, 456.96 64.65 M207.66 351.44 C265.31 286.38, 322.71 220.89, 456.96 64.65 M212.64 351.8 C272.13 281.27, 331.44 212.14, 456.7 71.05 M212.64 351.8 C291.06 263.83, 369.37 174.3, 456.7 71.05 M217.63 352.16 C299.27 260.32, 378.35 169.29, 457.09 76.69 M217.63 352.16 C272.49 288.61, 326.81 225.63, 457.09 76.69 M223.27 351.77 C276.01 289.42, 329.44 230.09, 456.83 83.09 M223.27 351.77 C307.52 254.6, 392.47 157.62, 456.83 83.09 M228.26 352.13 C294.49 275.94, 358.48 202.07, 457.23 88.73 M228.26 352.13 C302.96 265.47, 378.87 178.05, 457.23 88.73 M233.9 351.73 C285.98 292.86, 338.09 232.62, 456.96 95.13 M233.9 351.73 C311.29 261.77, 388.54 173.27, 456.96 95.13 M238.89 352.09 C298.31 283.14, 359.38 214.09, 456.7 101.53 M238.89 352.09 C284.78 300.33, 329.67 249.18, 456.7 101.53 M244.53 351.7 C288.47 299.08, 332.72 247.89, 457.1 107.17 M244.53 351.7 C308.94 279.01, 370.45 207.43, 457.1 107.17 M249.52 352.06 C317.42 274.98, 382.58 200.81, 456.84 113.57 M249.52 352.06 C328.36 261.99, 406.04 172.05, 456.84 113.57 M255.16 351.66 C316.35 283.3, 374.31 213.79, 457.23 119.21 M255.16 351.66 C333.56 261.59, 412.24 171.07, 457.23 119.21 M260.15 352.02 C322.95 278.38, 383.62 208.32, 456.97 125.61 M260.15 352.02 C309.24 296.43, 358.35 240.98, 456.97 125.61 M265.79 351.63 C342.22 264.27, 416.88 179.82, 456.71 132.01 M265.79 351.63 C306.93 306.68, 347.46 261.39, 456.71 132.01 M270.78 351.99 C315.39 299.7, 359.96 246.8, 457.1 137.65 M270.78 351.99 C326.55 287.14, 382 223.97, 457.1 137.65 M276.42 351.59 C347.36 270.07, 419.42 185.05, 456.84 144.05 M276.42 351.59 C326.91 293.84, 376.57 236.15, 456.84 144.05 M281.41 351.95 C343.65 283.1, 402.77 214.6, 457.24 149.69 M281.41 351.95 C328.52 298.93, 375.68 244.12, 457.24 149.69 M287.05 351.56 C352.33 278.78, 415.77 204.5, 456.97 156.09 M287.05 351.56 C339.88 290.02, 392.79 230.06, 456.97 156.09 M292.04 351.92 C348.78 286.39, 408.99 218.68, 456.71 162.49 M292.04 351.92 C355.06 281.4, 419.03 208.45, 456.71 162.49 M297.68 351.52 C354.04 285.94, 414.92 218.04, 457.11 168.13 M297.68 351.52 C358.47 280.91, 418.95 211.66, 457.11 168.13 M302.67 351.88 C344.33 302.35, 388.91 251.42, 456.85 174.53 M302.67 351.88 C351.47 293.32, 401.2 236.37, 456.85 174.53 M308.31 351.49 C368.15 282.63, 428.05 214.57, 457.24 180.17 M308.31 351.49 C360.5 292.78, 411.23 233.68, 457.24 180.17 M313.3 351.85 C342.63 316.11, 372.8 281.44, 456.98 186.57 M313.3 351.85 C351.11 309.11, 388.7 264.52, 456.98 186.57 M318.94 351.46 C354.5 307.13, 393.59 265.25, 456.72 192.97 M318.94 351.46 C348.43 314.93, 379.7 280.08, 456.72 192.97 M323.93 351.82 C364.99 303.61, 405.54 258.39, 457.11 198.61 M323.93 351.82 C354.35 316.74, 385.65 279.62, 457.11 198.61 M329.57 351.42 C376.77 297.57, 421.1 247.78, 456.85 205.01 M329.57 351.42 C354.48 321.86, 383.23 291.13, 456.85 205.01 M334.56 351.78 C362.96 322.07, 389.63 288.95, 457.25 210.65 M334.56 351.78 C375.96 302.64, 416.86 254.26, 457.25 210.65 M339.55 352.14 C367.14 321.4, 392.33 292.44, 456.98 217.05 M339.55 352.14 C373.79 312.81, 406.46 274.87, 456.98 217.05 M345.19 351.75 C373.63 316.77, 406.21 284.03, 456.72 223.45 M345.19 351.75 C385.41 306.47, 425.05 259.21, 456.72 223.45 M350.18 352.11 C391.48 304.88, 432.24 253.65, 457.12 229.09 M350.18 352.11 C390.7 308.12, 428.82 263.83, 457.12 229.09 M355.82 351.71 C382.22 322.3, 404.23 294.85, 456.86 235.49 M355.82 351.71 C389.63 312.86, 423.16 273.43, 456.86 235.49 M360.81 352.07 C399.31 310.24, 434.91 266.09, 457.25 241.13 M360.81 352.07 C397.03 311.11, 432.38 268.19, 457.25 241.13 M366.45 351.68 C387.25 326.74, 409.22 301.59, 456.99 247.53 M366.45 351.68 C385.34 330.51, 404.53 307.74, 456.99 247.53 M371.44 352.04 C399.18 321.36, 425.12 291.91, 456.73 253.93 M371.44 352.04 C405.88 311.71, 439.6 272.89, 456.73 253.93 M377.08 351.64 C407.52 318.28, 440.13 278.98, 457.12 259.57 M377.08 351.64 C404.53 319.35, 431.98 287.65, 457.12 259.57 M382.07 352 C396.9 336.26, 410.11 318.95, 456.86 265.97 M382.07 352 C403.07 327.05, 424.83 301.91, 456.86 265.97 M387.71 351.61 C411.17 326.23, 432.47 298.06, 457.25 271.61 M387.71 351.61 C405.31 332, 422.42 313.66, 457.25 271.61 M392.7 351.97 C412.47 327.44, 433.03 302.62, 456.99 278.01 M392.7 351.97 C410.8 331.77, 427.06 312.02, 456.99 278.01 M398.34 351.57 C422.95 325.16, 443.49 297.74, 456.73 284.4 M398.34 351.57 C410.97 337.41, 424.7 322.74, 456.73 284.4 M403.33 351.93 C422.35 331.78, 435.94 310.83, 457.13 290.05 M403.33 351.93 C421.2 331.98, 438.69 311.3, 457.13 290.05 M408.97 351.54 C427.24 331.46, 442.46 311.98, 456.86 296.45 M408.97 351.54 C422.15 335.67, 436.31 322.13, 456.86 296.45 M413.96 351.9 C428.85 333.49, 445.22 314.27, 456.6 302.84 M413.96 351.9 C426.35 337.66, 437.07 326.13, 456.6 302.84 M419.6 351.5 C430.4 338.77, 441.24 324.64, 457 308.49 M419.6 351.5 C432.1 337.47, 442.77 325.16, 457 308.49 M423.93 352.62 C431.94 344.2, 441.48 333.68, 456.74 314.88 M423.93 352.62 C437.17 338.4, 450.51 322.05, 456.74 314.88 M430.23 351.47 C438.15 339.9, 448.24 329.56, 456.48 321.28 M430.23 351.47 C437.23 343.05, 444.64 335.73, 456.48 321.28 M437.19 349.57 C444.93 341.34, 451.83 335.59, 455.56 328.43 M437.19 349.57 C442.5 343.6, 445.35 339.51, 455.56 328.43" stroke="#ffc9c9" stroke-width="0.5" fill="none"></path><path d="M32 0 M32 0 C159.34 0.78, 287.84 1.5, 422.4 0 M32 0 C182.89 -1.11, 332.26 -1.6, 422.4 0 M422.4 0 C441.97 -0.86, 452.98 10.6, 454.4 32 M422.4 0 C443.64 -0.46, 456.4 10.64, 454.4 32 M454.4 32 C456.21 112.22, 455.3 193.97, 454.4 319.39 M454.4 32 C453.7 143.19, 454.04 253.72, 454.4 319.39 M454.4 319.39 C453.24 341.81, 441.87 353.34, 422.4 351.39 M454.4 319.39 C452.56 340.26, 444.08 350.62, 422.4 351.39 M422.4 351.39 C339.52 353.65, 256.51 352.91, 32 351.39 M422.4 351.39 C319.53 349.97, 216.71 349.33, 32 351.39 M32 351.39 C10.37 350.98, -0.45 339.87, 0 319.39 M32 351.39 C9.39 351.82, 1.66 340.96, 0 319.39 M0 319.39 C0.44 258.21, 1.98 193.71, 0 32 M0 319.39 C-1.83 247.24, -1.25 176.56, 0 32 M0 32 C0.77 11.52, 8.78 1.55, 32 0 M0 32 C0.75 12.03, 11.9 0.49, 32 0" stroke="#1e1e1e" stroke-width="1" fill="none"></path></g><g stroke-linecap="round"><g transform="translate(266.9820318076321 15.062081748440505) rotate(0 3.101097109769796 256.7233449235289)"><path d="M1.16 0.42 C1.98 85.79, 4.61 427.57, 5.05 513.02" stroke="#1e1e1e" stroke-width="1.5" fill="none" stroke-dasharray="8 9"></path></g></g><mask></mask><g transform="translate(439.29063146583394 10) rotate(0 68.94749450683594 39.62647234315264)"><text x="0" y="0" font-family="Virgil, Segoe UI Emoji" font-size="63.40235574904422px" fill="#1e1e1e" text-anchor="start" style="white-space: pre;" direction="ltr" dominant-baseline="text-before-edge">Tool</text></g><g stroke-linecap="round" transform="translate(313.31670550225294 111.56947112185756) rotate(0 41.600006103515625 24.499999999999986)"><path d="M9.64 9.7 C9.64 9.7, 9.64 9.7, 9.64 9.7 M9.64 9.7 C9.64 9.7, 9.64 9.7, 9.64 9.7 M3.14 24.58 C8.82 19.5, 11.11 12.19, 18.84 6.23 M2.65 25.38 C5.79 18.7, 11.2 14.55, 18.18 6.13 M4.23 27.33 C10.65 21.27, 18.66 10.93, 29.05 2.6 M3.92 28.42 C10.09 19.76, 17.95 12.68, 27.06 1.25 M5.39 31.26 C13.21 25.64, 21.95 15.04, 33.13 1.31 M6.23 31.96 C15.27 20.77, 24.58 9.02, 32.46 1.06 M6.6 35.13 C17.41 22.9, 31.09 12, 38.55 2.57 M6.75 36.38 C18.24 26.44, 27.64 14.08, 36.77 2.8 M10.35 42.11 C18.52 32.57, 26.76 22.54, 43.37 1.67 M9.67 40.85 C17.89 28.94, 26.79 18.86, 41.54 2.13 M12.72 42.87 C23.95 28.94, 32.87 17.96, 47.79 2.79 M12.74 41.93 C25.96 28.1, 39.08 11.98, 46.56 2.41 M16.95 44.26 C25.17 34.93, 33.31 27.18, 53.82 1.4 M16.55 43.69 C31.01 27.68, 44.32 12.89, 53.07 2.51 M20.38 43.9 C30.92 33.46, 44.65 19.2, 56.87 2.61 M20.9 45.67 C32.51 32.57, 45.07 16.31, 56.97 2.65 M24.76 46.07 C38.35 31.64, 53.03 14.11, 60.08 5.07 M24.77 48.24 C32 37.9, 41.08 29.17, 60.66 5.69 M27.89 48.06 C35.95 36.68, 49.02 25.29, 65.86 6.82 M27.45 50.43 C42.72 33.45, 56.29 17.33, 64.17 6.43 M33.18 48.31 C42.98 39.31, 48.91 30.27, 67.6 8.18 M33.72 49.47 C48.71 33.92, 62.76 18.07, 68.43 9.93 M39.41 47.55 C50.11 38.06, 55.74 30.15, 70.61 12.62 M39.11 49.35 C49.63 36.35, 59.51 25.43, 71.76 11.86 M45.55 49.19 C54.55 37.33, 66.16 23.44, 76.37 12.39 M44.35 48.66 C53.77 38.57, 64.86 26.09, 75.72 11.51 M51.11 48.85 C61.34 37.04, 70.44 24.53, 77.61 16.17 M49.24 49.61 C58.24 39.08, 65.61 30.49, 77.67 16.9 M55.11 50.12 C61.91 39.45, 70.08 34.99, 80.38 19.36 M55.2 49.13 C60.4 41.65, 66.33 34.99, 80.51 20.53 M62.96 46.56 C67.89 36.61, 74.49 31.18, 81.22 22.55 M61.7 46.39 C70.11 37.43, 77.19 28.64, 83.32 23.25 M71.56 44.17 C73.54 40.58, 76.89 36.32, 83.37 24.61 M70.92 44.68 C76.86 37.87, 81.97 29.61, 85.18 26.82" stroke="#b2f2bb" stroke-width="0.5" fill="none"></path><path d="M30.26 0.11 C37.38 -1.51, 47.52 0.01, 55 1.91 C62.48 3.82, 70.46 7.75, 75.17 11.53 C79.88 15.31, 83.48 19.83, 83.26 24.6 C83.04 29.38, 78.86 36.39, 73.85 40.18 C68.84 43.96, 61.09 46.08, 53.19 47.3 C45.29 48.53, 34.12 48.98, 26.47 47.53 C18.81 46.07, 11.62 42.71, 7.28 38.57 C2.95 34.43, 0.06 27.49, 0.45 22.68 C0.84 17.88, 4.03 13.34, 9.61 9.73 C15.2 6.12, 29.41 2.44, 33.97 1.02 C38.53 -0.4, 37 0.87, 36.96 1.19" stroke="#2f9e44" stroke-width="1.5" fill="none" stroke-dasharray="8 9"></path></g><g transform="translate(332.0310792306568 123.74535498278715) rotate(0 22.969985961914062 12.5)"><text x="22.969985961914062" y="0" font-family="Virgil, Segoe UI Emoji" font-size="20px" fill="#2f9e44" text-anchor="middle" style="white-space: pre;" direction="ltr" dominant-baseline="text-before-edge">.jmx </text></g><g stroke-linecap="round" transform="translate(649.4535178111746 188.85348228967513) rotate(0 36.4000244140625 24.5)"><path d="M1.5 17.2 C1.5 17.2, 1.5 17.2, 1.5 17.2 M1.5 17.2 C1.5 17.2, 1.5 17.2, 1.5 17.2 M1.25 21.03 C5.61 17.25, 10.73 15.17, 19.75 3.3 M2.81 23.29 C6.07 19.08, 9.33 14.22, 17.33 3.45 M3.36 27.67 C6.43 23.16, 12.44 14.65, 25.97 3.54 M2.76 29.03 C11.49 17.72, 19.63 8.31, 24.43 2.86 M1.72 32.26 C11.6 21.64, 22.93 11.17, 30.17 1.84 M3.47 32.45 C12.53 23.09, 22.2 12.29, 30.76 1.86 M7.41 34.05 C13.14 25.2, 21.85 16.55, 36.37 2 M6.68 36.74 C16.35 24.33, 25.9 13.47, 36.02 1.6 M8 40.19 C19.85 26.96, 27.69 16.91, 41.77 0.6 M10.14 38.1 C16.05 30.35, 23.47 23.11, 41.48 1.13 M11.84 38.62 C22.06 27.37, 34.28 19.31, 47.82 2.42 M13.32 40.18 C19.92 31.75, 26.97 23.74, 46.55 2.44 M17.84 42.95 C27.51 29.85, 40.06 16, 49.78 3.75 M16.58 42.55 C24.74 34.24, 32.85 25.52, 49.75 3.31 M17.78 47.55 C31.66 28.01, 45.14 14.15, 55.22 4.52 M18.97 45.32 C27.51 34.86, 38.08 23.9, 54.64 5.05 M25.36 48.72 C34.9 34.58, 46.1 18.59, 60.37 6.21 M22.72 47.85 C30.83 37.9, 40.17 26.35, 59.62 5.91 M27.98 47.28 C40.3 34.71, 54.35 18.91, 63.17 8.49 M28.41 47 C39.09 35.03, 49.74 22.15, 62.41 7.28 M35.07 45.97 C40.71 36.36, 52.34 26.44, 68.27 10.27 M32.77 47.98 C43.33 35.55, 53.74 23.07, 66.52 8.4 M36.46 49.09 C48.8 36.29, 61.14 21.52, 69.47 13.42 M38.48 49.61 C48.51 36.29, 58.72 24.45, 69.07 13.51 M42.71 47.79 C51.21 41.31, 60.18 28.16, 71.99 17.78 M41.95 49.17 C50.6 39.35, 60.57 30.64, 70.54 16.52 M46.27 49.82 C54.84 42.72, 60.69 33.66, 73.61 22.91 M45.91 51.72 C53.74 40.4, 63.8 32.77, 71.34 22.27 M54.98 46.26 C61.84 39.59, 68.26 29.79, 73.03 25.36 M54.33 48.35 C61.33 39.87, 66.96 32.25, 73.58 25.4" stroke="#b2f2bb" stroke-width="0.5" fill="none"></path><path d="M41.83 0.86 C49.43 1.3, 60.19 3.94, 65.23 7.9 C70.27 11.86, 72.17 19.29, 72.05 24.62 C71.94 29.94, 69.3 35.8, 64.52 39.84 C59.74 43.88, 51.05 47.93, 43.37 48.86 C35.69 49.8, 25.28 48.22, 18.45 45.46 C11.62 42.71, 5.18 37.07, 2.4 32.31 C-0.38 27.55, -0.82 21.73, 1.77 16.89 C4.35 12.05, 10.11 5.78, 17.92 3.27 C25.72 0.77, 42.87 1.89, 48.6 1.85 C54.32 1.82, 52.61 2.79, 52.28 3.08" stroke="#2f9e44" stroke-width="1.5" fill="none" stroke-dasharray="8 9"></path></g><g transform="translate(672.4248509440804 201.0293661506047) rotate(0 13.189987182617188 12.5)"><text x="13.189987182617188" y="0" font-family="Virgil, Segoe UI Emoji" font-size="20px" fill="#2f9e44" text-anchor="middle" style="white-space: pre;" direction="ltr" dominant-baseline="text-before-edge">.cs</text></g><g stroke-linecap="round"><g transform="translate(405.6984463956305 135.77368645893898) rotate(0 35.45580829402917 -9.741613283154805)"><path d="M-0.76 0.01 C4.43 -3.16, 18.27 -16.66, 30.34 -18.99 C42.41 -21.33, 64.57 -14.67, 71.67 -13.99" stroke="#1e1e1e" stroke-width="1.5" fill="none" stroke-dasharray="8 9"></path></g><g transform="translate(405.6984463956305 135.77368645893898) rotate(0 35.45580829402917 -9.741613283154805)"><path d="M50.17 -8.61 C55.81 -12.78, 62.1 -11.55, 71.82 -15.48" stroke="#1e1e1e" stroke-width="1.5" fill="none"></path></g><g transform="translate(405.6984463956305 135.77368645893898) rotate(0 35.45580829402917 -9.741613283154805)"><path d="M52.9 -23.28 C57.89 -23.97, 63.53 -19.27, 71.82 -15.48" stroke="#1e1e1e" stroke-width="1.5" fill="none"></path></g></g><mask></mask><g stroke-linecap="round"><g transform="translate(640.2567327292345 215.9388947796274) rotate(0 -53.37398250496085 5.7267057187595185)"><path d="M-1.07 1.1 C-17.56 -0.27, -81.55 -12.76, -97.98 -9.38 C-114.41 -5.99, -99.41 16.3, -99.65 21.41" stroke="#1e1e1e" stroke-width="1.5" fill="none" stroke-dasharray="8 9"></path></g><g transform="translate(640.2567327292345 215.9388947796274) rotate(0 -53.37398250496085 5.7267057187595185)"><path d="M-107.17 11.31 C-106.17 15.51, -100.54 20.13, -98.44 21.64" stroke="#1e1e1e" stroke-width="1.5" fill="none"></path></g><g transform="translate(640.2567327292345 215.9388947796274) rotate(0 -53.37398250496085 5.7267057187595185)"><path d="M-97.74 8.3 C-100.34 13.56, -98.29 19.32, -98.44 21.64" stroke="#1e1e1e" stroke-width="1.5" fill="none"></path></g></g><mask></mask><g stroke-linecap="round" transform="translate(11.949826715805216 95.30003356933594) rotate(0 54.4000244140625 49.99999237060547)"><path d="M19 12.54 C19 12.54, 19 12.54, 19 12.54 M19 12.54 C19 12.54, 19 12.54, 19 12.54 M3.98 34.48 C9.32 28.39, 12.87 24.51, 27.99 11.06 M4.34 35.31 C11.49 25.89, 19.49 16.98, 27.78 8.98 M3.32 41.77 C13.8 29.54, 28.48 17.04, 36.87 4.58 M2.62 43.38 C10.77 33.16, 18.76 24.31, 36.69 4.32 M3.59 47.53 C11.81 35.33, 24.47 26.31, 44.14 2.52 M2.77 48.74 C17.73 33.31, 30.27 18.36, 44.21 3.19 M2.25 55.98 C17.36 41.81, 30.59 25.81, 50.96 2.86 M2.37 56.14 C17 39.32, 29.37 23.93, 50.11 2.77 M1.42 61.21 C13.42 46, 29.38 31.63, 54.48 0.31 M2.88 61.91 C14.32 48.01, 26.7 34.34, 53.46 1.6 M6.95 66.87 C25.07 40.33, 47.01 20.34, 60.88 3.75 M4.31 65.02 C21.26 46.81, 38.71 27.84, 59.19 2.44 M6.08 70.76 C26.34 49.44, 43.35 26.51, 64.96 2.61 M6.39 69.17 C20.98 53.82, 34.65 36.26, 65.28 2.06 M10.26 70.96 C28.15 53.87, 44.71 33.04, 70.41 4.44 M8.97 72.31 C21.22 59.81, 33.41 45.01, 68.6 4.32 M12.23 75.68 C30.42 52, 50.3 31.83, 72.84 6.11 M10.68 75.96 C29.22 56.37, 47.26 33.5, 73.42 4.72 M14.88 79.68 C24.64 66.96, 38.01 48.79, 75.99 7.36 M13.37 81.04 C36.74 52.14, 60.45 24.07, 77.29 7.48 M14.31 83.87 C28.88 67.66, 42.85 50.26, 82 10.2 M14.65 82.94 C31.18 64.97, 46.61 46.14, 80.85 8.3 M18.71 85.91 C35.14 66.54, 50.54 47.35, 85.83 11.32 M18.41 85.54 C31.84 70.25, 44.77 55.36, 83.72 10.24 M22.01 88.89 C42.79 63.49, 60.57 40.99, 85.46 13.42 M22.02 87.32 C40.65 66.87, 57.24 46.1, 86.37 12.51 M27.54 91.69 C41.48 75.03, 55.89 59.1, 91.48 13.35 M25.54 89.15 C46.76 65.59, 67.41 40.85, 91.24 15.99 M28.28 94.56 C55.2 61.78, 80.44 35.6, 94.82 17 M29.5 93.36 C49.13 68.78, 71.48 45.22, 94.01 17.61 M32.47 95.28 C51.34 73.26, 67.62 50.45, 96.32 19.41 M32.14 95.28 C58.68 64.9, 84.05 35.24, 96.76 19.86 M35.28 96.06 C59.91 67.45, 85.96 39.65, 98.99 22.4 M36.61 95.59 C60.93 67.04, 85.91 38.56, 99.78 23.9 M40.42 99.62 C57.54 80.68, 76.22 58.58, 103.03 25.67 M40.11 99.85 C57.68 77.96, 75.31 56.3, 102.13 28.06 M43.04 99.82 C65.96 74.28, 87.37 46.66, 102.71 31.73 M44.43 98.55 C61.12 79.75, 79 60.22, 104.14 30.21 M49.5 101.06 C63.73 81.8, 76.42 66.03, 106.1 36.71 M49.18 100.01 C66.25 79.85, 85.5 59.61, 104.65 34.03 M55.51 101.14 C70.36 78.99, 88.03 60.61, 107.92 38.79 M53.6 100.59 C69.67 83.44, 84.2 63.63, 107.45 38.87 M59.83 99.91 C71.14 86.36, 84.45 72.32, 107.95 42.55 M59.74 100.78 C70.25 88.17, 81.23 73.4, 109.22 41.52 M65.19 100.08 C79.36 81.93, 92.24 68.63, 108.57 51.1 M64.98 99.56 C74.88 88.07, 86.78 74.67, 108.7 49.81 M71.95 95.9 C85.78 82.79, 98.5 67.22, 108.33 57.68 M73.26 96.39 C85.72 81.3, 99.58 66.01, 107.73 55.59 M83.11 94.55 C88.17 86.93, 91.43 80.89, 108.38 62.58 M81.61 94.1 C90.01 84.57, 97.1 75.39, 107.33 63.16" stroke="#b2f2bb" stroke-width="0.5" fill="none"></path><path d="M71.68 3.27 C79.84 5.08, 88.87 11.02, 94.91 17.37 C100.94 23.71, 105.96 33.21, 107.9 41.34 C109.83 49.46, 109.4 58.3, 106.52 66.12 C103.65 73.95, 97.64 82.92, 90.66 88.28 C83.67 93.63, 73.63 96.89, 64.6 98.24 C55.58 99.58, 45.1 99.03, 36.53 96.33 C27.96 93.62, 19.2 88.03, 13.21 82 C7.22 75.97, 2.34 68.07, 0.57 60.17 C-1.19 52.26, -0.47 42.5, 2.6 34.57 C5.67 26.63, 12.11 18.04, 18.97 12.57 C25.84 7.1, 33.85 2.9, 43.78 1.74 C53.72 0.58, 71.54 4.24, 78.6 5.62 C85.67 7, 86.46 9.21, 86.18 10.05" stroke="#2f9e44" stroke-width="1.5" fill="none" stroke-dasharray="8 9"></path></g><g transform="translate(51.15323687182581 120.44469227541066) rotate(0 15.229988098144531 25)"><text x="15.229988098144531" y="0" font-family="Virgil, Segoe UI Emoji" font-size="20px" fill="#2f9e44" text-anchor="middle" style="white-space: pre;" direction="ltr" dominant-baseline="text-before-edge">c#</text><text x="15.229988098144531" y="25" font-family="Virgil, Segoe UI Emoji" font-size="20px" fill="#2f9e44" text-anchor="middle" style="white-space: pre;" direction="ltr" dominant-baseline="text-before-edge">jmx</text></g><g stroke-linecap="round" transform="translate(10 289.084855302126) rotate(0 60.399993896484375 57.19999694824219)"><path d="M10.57 26.41 C10.57 26.41, 10.57 26.41, 10.57 26.41 M10.57 26.41 C10.57 26.41, 10.57 26.41, 10.57 26.41 M6.34 37.88 C13.05 29.01, 23.46 20.86, 29.36 7.06 M7.03 37.86 C13.81 27.52, 22.01 19.06, 31.27 8.95 M1.66 48.48 C13.43 37.74, 21.43 22.36, 37.2 8.07 M3.16 47.23 C11.24 37.71, 20.28 27.94, 37.39 6.85 M3.7 54.55 C11.89 44.37, 20.98 29.64, 44.94 2.44 M2.43 54.29 C16.67 37.32, 30.1 22.63, 45.77 4.9 M1.98 60.05 C12.96 47.25, 27.88 30.65, 52.68 2.8 M2.07 59.55 C20.01 40.09, 37.5 19.49, 52.73 3.08 M3.05 65.42 C23.03 41.12, 45.67 16.38, 58.23 -0.33 M4.89 65.1 C15.62 51.86, 25.79 39.02, 59.84 0.43 M4.92 71.81 C23.44 50.82, 39.33 30.5, 62.28 3.13 M5.16 70.28 C20.45 51.19, 36.34 33.94, 64.46 2.17 M6.72 76.86 C26.58 50.21, 49.48 25.47, 67.3 0.63 M5.68 75.15 C22.92 53.38, 43.23 30.42, 68.08 3.14 M5.09 80.64 C27.19 55.44, 48.56 29.62, 72.05 1.69 M5.65 79.87 C28.33 53.52, 52.4 28.06, 72.29 4.03 M8.61 85.25 C33.72 54.28, 59.78 24, 76.54 6.47 M8.49 83.96 C26.32 62.77, 45.73 39.68, 77.17 5.52 M10.15 88.7 C33.53 61.26, 58.05 29.52, 80.46 5.43 M9.65 87.71 C33.91 61.29, 55.62 35.43, 81.17 5.52 M13.18 88.04 C37.86 61.86, 62.35 32.13, 85.5 6.92 M14.39 90.82 C38.41 62.22, 60.35 35.45, 84.85 6.32 M14.27 91.49 C38.76 65.49, 59.47 43.13, 89.78 8.86 M15.64 94.17 C42.06 62.6, 69.32 32.62, 90.73 7.77 M17.32 97.53 C38.04 73.29, 61.98 50.12, 92.86 11.8 M17.75 96.45 C44.95 67.06, 70.56 37.01, 93.8 10 M22.04 100.81 C39.27 77.09, 58.5 55.95, 98.1 14.09 M20.35 99.61 C40.76 76.68, 60.89 54.59, 95.25 14.1 M24.31 102.04 C49.46 73.94, 71.87 46.64, 99.05 15.97 M24.16 102.31 C52.61 69.64, 81.24 37.02, 98.33 15.77 M27.81 105.54 C43.49 87.62, 59.23 66.32, 103.19 17.74 M28.09 105.09 C46.51 84.35, 63.65 63.56, 101.53 19.05 M31.86 106.45 C61.2 74.79, 88.46 40.56, 106.26 19.35 M30.48 107.06 C56.62 75.97, 83.53 44.9, 104.32 21.5 M34.35 109.08 C58.11 84.81, 78.82 56.63, 107.32 23.27 M35.48 107.87 C59.59 80.15, 85.84 50.45, 109.68 22.62 M36.84 111.99 C57.25 90.3, 73.23 69.8, 112.46 25.16 M37.58 110.35 C66.89 79.13, 94.44 46.42, 111.27 26.07 M43.57 110.93 C67.1 83.57, 92.57 54.7, 111.86 30.47 M42.08 110.96 C58.39 93.2, 72.38 76.46, 113.84 29.83 M45.19 113.43 C64.63 90.25, 84.93 66.81, 115.44 32.5 M46.25 114.02 C60.66 96.68, 76.81 78.69, 114.39 33.86 M49.14 113.91 C73.18 86.91, 99.86 57.48, 116.61 39.15 M49.1 114.34 C73.87 88.95, 94.76 61.95, 117.34 38.34 M57.28 114.08 C78.07 90.3, 99.55 62.43, 121.33 41.95 M56.53 115.16 C80.55 84.9, 106.75 55.73, 119.04 42.38 M62.43 113.35 C74.99 100.36, 88.14 81.15, 122.45 47.22 M61.26 114.16 C73.36 99.93, 87.13 84.67, 121.49 46.6 M67.25 114.61 C82.11 96.53, 96.43 79.83, 123.44 50.69 M67.12 114.8 C86.23 91.41, 106.99 68.64, 123.58 49.43 M72.69 114.69 C81.31 103.29, 91.53 91.77, 122.77 55.4 M71.01 114.34 C92.02 92.19, 110.5 70.68, 120.9 56.49 M79.03 112.96 C89.95 98.93, 106.6 83.32, 120.88 61.5 M77.31 113.97 C89.95 101.52, 100.19 87.32, 122.08 64.03 M88.82 105.65 C95.03 98.87, 106.82 89.94, 120 69.95 M88.3 106.73 C101.99 92.61, 112.74 78.17, 120.11 70.13 M96.85 100.35 C106.43 91.73, 117.2 80.81, 121.75 77.88 M99.54 101.57 C107.29 93.01, 114.99 81.81, 121.37 77.62" stroke="#b2f2bb" stroke-width="0.5" fill="none"></path><path d="M57.83 -0.76 C66.67 -1.78, 78.82 1.95, 87.39 6.05 C95.96 10.15, 103.64 16.83, 109.24 23.83 C114.84 30.83, 119.48 39.53, 120.98 48.06 C122.49 56.59, 121.46 66.41, 118.25 74.99 C115.05 83.56, 108.54 93.14, 101.75 99.51 C94.96 105.88, 86.38 110.77, 77.52 113.18 C68.66 115.58, 57.84 115.9, 48.6 113.95 C39.36 112, 29.51 107.19, 22.1 101.49 C14.7 95.78, 7.68 87.83, 4.16 79.72 C0.64 71.61, -0.06 61.67, 0.98 52.82 C2.02 43.96, 5.56 34.13, 10.41 26.59 C15.26 19.06, 21.16 11.96, 30.1 7.62 C39.04 3.28, 57.58 1.6, 64.06 0.54 C70.53 -0.52, 69.1 0.32, 68.94 1.28" stroke="#2f9e44" stroke-width="1.5" fill="none" stroke-dasharray="8 9"></path></g><g transform="translate(55.4307617512128 333.83834652441647) rotate(0 14.759986877441406 12.5)"><text x="14.759986877441406" y="0" font-family="Virgil, Segoe UI Emoji" font-size="20px" fill="#2f9e44" text-anchor="middle" style="white-space: pre;" direction="ltr" dominant-baseline="text-before-edge">.md</text></g><g stroke-linecap="round" transform="translate(447.97714333629665 106.80229901527301) rotate(0 89 35.999999999999986)"><path d="M5.78 36.82 C5.78 36.82, 5.78 36.82, 5.78 36.82 M5.78 36.82 C5.78 36.82, 5.78 36.82, 5.78 36.82 M8.8 39.45 C11.75 37.29, 13.43 35.35, 16.01 31.15 M8.8 39.45 C10.57 37.31, 12.73 34.89, 16.01 31.15 M11.82 42.07 C14.75 37.66, 21.6 30.42, 23.63 28.49 M11.82 42.07 C16.22 38.14, 19.35 33.6, 23.63 28.49 M15.49 43.94 C20.3 39.09, 21.59 36.04, 31.89 25.07 M15.49 43.94 C20.77 38.11, 27.13 32.07, 31.89 25.07 M19.17 45.81 C22.36 39.6, 26.93 33.53, 40.16 21.66 M19.17 45.81 C26.17 38.49, 31.16 32.63, 40.16 21.66 M23.5 46.93 C32.89 36.22, 40.57 26.3, 48.43 18.25 M23.5 46.93 C31.58 38.37, 36.81 30.46, 48.43 18.25 M27.17 48.8 C34.4 38.6, 45.07 28.49, 56.04 15.59 M27.17 48.8 C32.73 41.49, 39.45 35.88, 56.04 15.59 M31.5 49.91 C38.94 39.46, 47.43 30.9, 64.31 12.17 M31.5 49.91 C38.46 40.53, 46.57 32.81, 64.31 12.17 M35.18 51.78 C48.48 35.56, 62.28 24.62, 72.57 8.76 M35.18 51.78 C46.89 37.9, 58.76 25.06, 72.57 8.76 M39.51 52.89 C48.65 38.72, 59.61 28.08, 80.84 5.35 M39.51 52.89 C50.67 40.96, 62.65 27.68, 80.84 5.35 M43.18 54.76 C60.52 39.43, 75.19 18.87, 87.14 4.2 M43.18 54.76 C57.18 40.39, 70.13 25.62, 87.14 4.2 M47.51 55.88 C64 36.22, 79.25 20.23, 92.78 3.8 M47.51 55.88 C57.59 42.46, 70.11 30.94, 92.78 3.8 M51.19 57.75 C60.94 47.9, 71.57 33.06, 97.11 4.92 M51.19 57.75 C65.3 39.99, 79.7 23.19, 97.11 4.92 M55.52 58.86 C71.34 39.49, 84.89 24.49, 100.79 6.79 M55.52 58.86 C72.86 38.59, 89.62 19.4, 100.79 6.79 M59.2 60.73 C72.28 42.86, 89.6 27.35, 105.12 7.9 M59.2 60.73 C68.55 50.2, 78.8 37.98, 105.12 7.9 M63.53 61.85 C72.79 51.28, 81.78 41.01, 108.79 9.77 M63.53 61.85 C75.69 47.49, 87.37 34.53, 108.79 9.77 M67.2 63.72 C78.61 49.18, 93.82 32.91, 113.78 10.13 M67.2 63.72 C80.11 47.57, 93.18 33.52, 113.78 10.13 M71.53 64.83 C83.98 47.71, 98.93 34.56, 117.46 12 M71.53 64.83 C84.5 49.5, 97.85 35.86, 117.46 12 M75.21 66.7 C86.12 52.75, 97.48 40.37, 121.13 13.87 M75.21 66.7 C89.08 49.89, 103.91 32.97, 121.13 13.87 M79.54 67.82 C97.84 50.04, 111.96 30.05, 125.46 14.99 M79.54 67.82 C94.47 49.94, 111.38 31.79, 125.46 14.99 M83.21 69.69 C101.15 48.72, 116.63 30.16, 129.14 16.86 M83.21 69.69 C100.56 51.04, 116.69 30.94, 129.14 16.86 M87.54 70.8 C99.72 56.26, 115.21 37.6, 132.81 18.73 M87.54 70.8 C104.77 49.15, 122.19 29.95, 132.81 18.73 M91.87 71.92 C109.44 53.81, 127.82 31.03, 137.14 19.84 M91.87 71.92 C105.69 55.03, 121.39 37.07, 137.14 19.84 M100.14 68.5 C109.3 59.27, 119.05 47.36, 140.82 21.71 M100.14 68.5 C113.01 56.33, 124 42.09, 140.82 21.71 M107.75 65.84 C115.07 56.11, 123.85 47.32, 144.49 23.58 M107.75 65.84 C116.47 57.24, 124.11 46.62, 144.49 23.58 M116.02 62.43 C128.97 50.5, 140.98 34.63, 148.17 25.45 M116.02 62.43 C124.47 51.05, 134.75 41.19, 148.17 25.45 M123.63 59.77 C132.22 48.99, 140.91 39.89, 152.5 26.56 M123.63 59.77 C131.47 50.3, 140.65 40.88, 152.5 26.56 M131.9 56.36 C136.82 50.49, 144.24 46, 156.17 28.43 M131.9 56.36 C137.16 50.51, 143.49 43.91, 156.17 28.43 M139.51 53.7 C148.39 46.63, 153.97 37.84, 159.85 30.3 M139.51 53.7 C144.98 46.39, 152.64 39.98, 159.85 30.3 M147.78 50.29 C152.38 44.46, 158.89 38.04, 164.18 31.42 M147.78 50.29 C153.06 43.72, 158.02 38.53, 164.18 31.42 M156.04 46.87 C161.94 40.37, 164.49 37.72, 167.85 33.29 M156.04 46.87 C159.42 42.9, 161.5 39.81, 167.85 33.29 M165.62 41.95 C167.14 40.5, 169.35 39.11, 171.53 35.16 M165.62 41.95 C166.87 40.06, 168.94 38.37, 171.53 35.16" stroke="#a5d8ff" stroke-width="0.5" fill="none"></path><path d="M112.5 9.25 M112.5 9.25 C120.19 12, 127.96 18.33, 155.5 27.75 M155.5 27.75 C179.94 38.87, 177.81 35.72, 155.5 46.25 M155.5 46.25 C139.2 50.49, 127.11 55.79, 112.5 62.75 M112.5 62.75 C91.76 73.26, 88.9 72.19, 67.5 62.75 M67.5 62.75 C57.4 58.25, 41.99 52.65, 22.5 46.25 M22.5 46.25 C0.74 37.03, 1.64 35.65, 22.5 27.75 M22.5 27.75 C36.47 20.7, 52.35 16.33, 67.5 9.25 M67.5 9.25 C88.96 -1.26, 89.26 0.17, 112.5 9.25" stroke="#1971c2" stroke-width="1.5" fill="none" stroke-dasharray="8 9"></path></g><g transform="translate(503.417176295281 130.302299015273) rotate(0 33.559967041015625 12.499999999999986)"><text x="33.559967041015625" y="0" font-family="Virgil, Segoe UI Emoji" font-size="20px" fill="#1971c2" text-anchor="middle" style="white-space: pre;" direction="ltr" dominant-baseline="text-before-edge">Jmeter</text></g><g stroke-linecap="round" transform="translate(372.7937354703581 254.90789441827735) rotate(0 151 85)"><path d="M11.54 81.58 C11.54 81.58, 11.54 81.58, 11.54 81.58 M11.54 81.58 C11.54 81.58, 11.54 81.58, 11.54 81.58 M10.62 88.74 C12.96 85.82, 18.83 81.81, 21.78 75.91 M10.62 88.74 C13.3 84.89, 17.44 81.47, 21.78 75.91 M13.64 91.36 C18.28 83.25, 24.33 77.23, 32.01 70.23 M13.64 91.36 C19.5 83.21, 26.61 77.16, 32.01 70.23 M16.66 93.99 C23.54 82.44, 35.11 72.22, 42.25 64.55 M16.66 93.99 C24 84.39, 31.81 76.86, 42.25 64.55 M19.03 97.36 C29.69 84.9, 45.05 69.44, 52.48 58.87 M19.03 97.36 C29.91 84.12, 42.8 71.97, 52.48 58.87 M22.7 99.23 C36.05 84.32, 48.94 67.05, 62.72 53.2 M22.7 99.23 C34.04 85.15, 47.81 72.35, 62.72 53.2 M26.38 101.1 C44.1 81, 58.79 63.93, 73.61 46.76 M26.38 101.1 C39.17 87.01, 51.82 73.62, 73.61 46.76 M29.39 103.73 C45.85 84.17, 62.24 65.95, 83.85 41.09 M29.39 103.73 C48.47 81.55, 66.49 59.84, 83.85 41.09 M33.07 105.6 C56.1 78.4, 80.84 50.52, 94.08 35.41 M33.07 105.6 C52.76 81.85, 74.75 58.51, 94.08 35.41 M36.74 107.47 C63.95 79.17, 88.68 50.34, 104.32 29.73 M36.74 107.47 C63.83 75.63, 90.03 45.78, 104.32 29.73 M40.42 109.34 C56.62 91.2, 72.49 72.26, 114.55 24.05 M40.42 109.34 C66.35 78.89, 94 49.17, 114.55 24.05 M44.09 111.21 C64.68 88.87, 84.85 64.99, 124.79 18.38 M44.09 111.21 C66.05 87.07, 86.49 63.67, 124.79 18.38 M47.77 113.08 C75.83 81.05, 105.92 48, 135.02 12.7 M47.77 113.08 C74.93 80.93, 103.26 47.99, 135.02 12.7 M51.44 114.94 C81.4 79.66, 114.28 42.69, 143.29 9.29 M51.44 114.94 C71.08 91.42, 90.7 69.04, 143.29 9.29 M55.12 116.81 C89.33 74.98, 125.89 31.74, 149.59 8.14 M55.12 116.81 C89.54 77.08, 124.95 36.93, 149.59 8.14 M58.14 119.44 C81.61 92.66, 102.79 67.52, 155.23 7.74 M58.14 119.44 C81.11 94.08, 104.17 67.95, 155.23 7.74 M61.81 121.31 C88.28 92.3, 111.4 65.71, 160.88 7.35 M61.81 121.31 C84.36 97.12, 106.37 72.15, 160.88 7.35 M65.49 123.18 C92.26 93.42, 119.73 62.52, 164.55 9.22 M65.49 123.18 C99.24 82.99, 132.24 45.17, 164.55 9.22 M69.16 125.05 C104.39 85.45, 136.57 46.21, 168.23 11.09 M69.16 125.05 C104.56 83.86, 141.42 42.37, 168.23 11.09 M72.84 126.92 C96.61 98.33, 119.27 72.59, 171.9 12.96 M72.84 126.92 C97.79 98.04, 120.74 71.25, 171.9 12.96 M76.51 128.79 C108.77 93.8, 134.71 60.49, 175.58 14.82 M76.51 128.79 C102.07 99.22, 128.85 68.15, 175.58 14.82 M80.19 130.66 C99.25 107.86, 121.84 81.67, 179.25 16.69 M80.19 130.66 C111.51 94.5, 141.73 60.18, 179.25 16.69 M83.86 132.53 C110.27 99.02, 138.33 68.21, 182.93 18.56 M83.86 132.53 C120.83 90.57, 157.03 49.7, 182.93 18.56 M87.54 134.39 C121.81 95.91, 158.19 52.75, 186.6 20.43 M87.54 134.39 C125.54 89.35, 165.91 43.46, 186.6 20.43 M90.56 137.02 C117.25 105.31, 143.7 74.66, 190.28 22.3 M90.56 137.02 C117.01 105.16, 143.67 74.28, 190.28 22.3 M94.23 138.89 C122.94 106.09, 150.59 75.84, 193.95 24.17 M94.23 138.89 C114.96 113.75, 138.4 88.13, 193.95 24.17 M97.9 140.76 C121.12 116.62, 141.34 90.04, 197.63 26.04 M97.9 140.76 C134.35 99.58, 169.06 58.08, 197.63 26.04 M101.58 142.63 C130.52 104.93, 163.19 73.13, 201.3 27.91 M101.58 142.63 C137.22 100.62, 173.68 59.04, 201.3 27.91 M105.25 144.5 C128.63 116.99, 149.34 93.74, 204.32 30.54 M105.25 144.5 C142.68 101.1, 180.48 58.41, 204.32 30.54 M108.93 146.37 C132.24 120.12, 154.5 93.15, 207.99 32.41 M108.93 146.37 C137.67 112.81, 167.31 80.66, 207.99 32.41 M112.6 148.24 C133.68 121.66, 153.03 99.49, 211.67 34.27 M112.6 148.24 C138.1 118.88, 164.21 89.04, 211.67 34.27 M116.28 150.11 C146.04 117.32, 175.19 85.37, 215.34 36.14 M116.28 150.11 C150.16 111.1, 185.54 72.02, 215.34 36.14 M119.95 151.98 C142.62 124.79, 169.48 94.07, 219.02 38.01 M119.95 151.98 C146.99 119.55, 175.87 86.76, 219.02 38.01 M122.97 154.6 C148.38 122.98, 172.08 94.22, 222.04 40.64 M122.97 154.6 C153.62 117.09, 185.62 81.11, 222.04 40.64 M126.65 156.47 C165.71 112.41, 203.64 64.48, 225.71 42.51 M126.65 156.47 C160.74 116.03, 194.92 78.15, 225.71 42.51 M130.32 158.34 C161.84 118.25, 195.67 82.11, 229.39 44.38 M130.32 158.34 C159.61 121.92, 191.56 87.15, 229.39 44.38 M134 160.21 C161.76 127.11, 189.2 96.37, 233.06 46.25 M134 160.21 C159.86 131.15, 184.16 103.88, 233.06 46.25 M138.33 161.32 C160.32 135.47, 181.83 108.47, 236.08 48.87 M138.33 161.32 C161.95 134.14, 185.64 104.82, 236.08 48.87 M142 163.19 C173.8 127.65, 206.75 89.33, 239.76 50.74 M142 163.19 C163.95 136.27, 187 110.16, 239.76 50.74 M146.33 164.31 C175.17 127.57, 205.58 93.37, 243.43 52.61 M146.33 164.31 C182.71 122.53, 218.91 82.33, 243.43 52.61 M150.01 166.18 C182.84 131.88, 212.31 97.7, 247.11 54.48 M150.01 166.18 C174.78 135.67, 200.15 106.29, 247.11 54.48 M156.31 165.03 C177.93 139.09, 204.01 109.49, 250.13 57.1 M156.31 165.03 C189.53 124.96, 223.7 87.26, 250.13 57.1 M163.92 162.37 C183.89 139.16, 201.48 117.46, 253.8 58.97 M163.92 162.37 C190.45 131.18, 218.29 98.28, 253.8 58.97 M173.5 157.45 C203.2 121.01, 235.65 83.91, 257.47 60.84 M173.5 157.45 C204.68 120.45, 237.41 83.09, 257.47 60.84 M183.73 151.77 C214.52 115.9, 245.39 81.35, 261.15 62.71 M183.73 151.77 C206.39 126, 226.9 101.93, 261.15 62.71 M193.97 146.09 C215.13 124, 235.51 101.9, 264.17 65.34 M193.97 146.09 C213.61 123.59, 233.4 100.02, 264.17 65.34 M204.21 140.41 C225.59 115.65, 248.37 87.87, 267.84 67.21 M204.21 140.41 C223.79 119.51, 240.29 99.78, 267.84 67.21 M214.44 134.74 C230.33 117.3, 244.29 101.22, 271.52 69.08 M214.44 134.74 C235.1 111.19, 257.49 85.94, 271.52 69.08 M224.02 129.81 C233.91 115.48, 248.68 103.02, 275.19 70.95 M224.02 129.81 C244.69 107.95, 263.82 84.04, 275.19 70.95 M234.26 124.14 C247.08 109.56, 263.57 92.39, 278.87 72.81 M234.26 124.14 C243.15 113.28, 253.66 102.47, 278.87 72.81 M244.49 118.46 C253.57 108.14, 263.4 94.92, 281.89 75.44 M244.49 118.46 C252.59 108.1, 261.83 97.15, 281.89 75.44 M254.73 112.78 C263.84 103.25, 270.45 92.88, 285.56 77.31 M254.73 112.78 C262.82 103.25, 272.53 91.82, 285.56 77.31 M264.96 107.1 C272.35 96.07, 281.19 87.18, 288.58 79.93 M264.96 107.1 C270.21 99.55, 278 92.39, 288.58 79.93 M274.54 102.18 C276.5 96.22, 283.56 93.3, 291.6 82.56 M274.54 102.18 C279.13 97, 283.65 91.06, 291.6 82.56 M279.53 102.54 C281.75 96.9, 288.58 95.19, 293.31 86.69 M279.53 102.54 C281.93 99.16, 286.12 96.11, 293.31 86.69" stroke="#a5d8ff" stroke-width="0.5" fill="none"></path><path d="M190 21.5 M190 21.5 C205.95 29.92, 220.22 40.69, 264 64.5 M264 64.5 C300.76 87.85, 301.67 86.07, 264 107.5 M264 107.5 C248.37 115.93, 231.32 126.83, 190 148.5 M190 148.5 C151.14 168.59, 150.43 169.55, 114 148.5 M114 148.5 C86.26 135.54, 60.84 119.7, 38 107.5 M38 107.5 C1.91 87.4, 0.55 85.6, 38 64.5 M38 64.5 C63.9 49.52, 88.09 38.21, 114 21.5 M114 21.5 C153.16 1.6, 151.28 0.81, 190 21.5" stroke="#1971c2" stroke-width="1.5" fill="none" stroke-dasharray="8 9"></path></g><g transform="translate(458.1037711759245 327.40789441827735) rotate(0 65.6899642944336 12.5)"><text x="65.6899642944336" y="0" font-family="Virgil, Segoe UI Emoji" font-size="20px" fill="#1971c2" text-anchor="middle" style="white-space: pre;" direction="ltr" dominant-baseline="text-before-edge">LLM (GPT X)</text></g><g stroke-linecap="round" transform="translate(312.5723959106906 184.4427506046934) rotate(0 51.39866908125782 24.5)"><path d="M5.71 14.24 C5.71 14.24, 5.71 14.24, 5.71 14.24 M5.71 14.24 C5.71 14.24, 5.71 14.24, 5.71 14.24 M0.92 26.71 C8.21 19.98, 13.5 14.05, 17.17 9.19 M1.85 25.12 C6.12 19.8, 12.06 12.75, 16.63 8.74 M1.5 27.6 C9.67 21.06, 20.24 11.17, 27.97 4.55 M3.74 28.71 C8.54 22.28, 16.17 15.83, 26.26 2.61 M4.1 32.59 C11.67 26.88, 18.45 18.73, 29.9 1.16 M5.83 32.66 C11.15 26.64, 15.84 20.16, 32.63 1.79 M8.97 34.97 C17.64 24.84, 31.18 11.79, 36.81 1.66 M7.11 35.57 C17.3 24.34, 28.33 14.38, 37.91 2.84 M11.35 38.08 C15.88 33.09, 24.06 24.93, 42.29 0.63 M9.39 40.21 C18.45 30.63, 27.19 20.06, 43.85 1.29 M13.82 40.89 C23.32 32.25, 30.15 21.49, 47.18 2.43 M13.14 42.53 C26.99 26.2, 39.1 11.86, 48.88 0.97 M17.24 45.16 C24.57 31.68, 33.24 24.2, 54.61 0.32 M18.04 42.26 C28.42 31.61, 40.11 18.6, 54.68 2.5 M21.75 44.81 C28.22 35.36, 39.93 27.7, 58.88 1.32 M21.54 45.73 C34.6 30.16, 48.43 15.37, 58.67 3.67 M24.32 45.52 C38.39 30.41, 53.14 14.71, 61.1 4.62 M25.93 46.87 C36.61 32.35, 48.69 19.35, 63.17 3.22 M29.1 49.14 C36.88 38.51, 46.09 27.24, 68.2 4.67 M30.3 47.11 C42.69 32.08, 56.65 15.62, 67.95 3.4 M34.34 48.28 C48.54 31.58, 65.91 14.68, 71.16 3.1 M35.02 47.37 C46.62 33.17, 60.11 20.06, 72.14 5.28 M41.38 47.72 C51.53 35.65, 64.44 21.67, 78.04 5.55 M40.27 48.89 C46.66 39.57, 54.61 31.11, 76.65 5.12 M44.28 48.5 C59.31 31.22, 75.63 13.07, 84.81 4.29 M45.22 48.84 C58.8 32.17, 73.73 14.78, 82.71 4.3 M48.72 47.08 C58.14 35.46, 70.69 24.57, 87.86 5.44 M50.54 48.82 C57.95 39.19, 66.38 29.05, 85.89 8.09 M55.69 49.68 C69.03 34.08, 82.35 18.79, 88.68 7.69 M55.62 48.7 C68.16 34.26, 82.55 18.61, 90.31 9.71 M61.09 50.69 C66.19 40.53, 77.25 32.55, 91.71 12.55 M59.73 50.43 C69.09 38.54, 79.52 28.1, 94.07 10.12 M63.35 51 C74.87 38.8, 87.11 23.87, 96.53 13.43 M65.21 49.85 C72.27 41.97, 78.28 33.32, 97.07 14.42 M73.68 45.42 C79.16 41.13, 81.92 34.91, 99.49 15.74 M73.31 47.5 C84.17 34.6, 94.4 22.4, 100.08 15.52 M79.18 46.81 C87.46 38.44, 91.64 31.97, 102.75 18.84 M78.79 46.21 C83.97 40.47, 89.43 34.23, 101.46 19.41 M90.26 42.87 C92.96 35.17, 97.31 30.19, 100.41 26.34 M88.99 41.36 C91.74 36.56, 94.33 32.8, 102.77 24.93" stroke="#b2f2bb" stroke-width="0.5" fill="none"></path><path d="M55.36 0.9 C64.44 0.63, 75.22 1.96, 82.45 4.27 C89.68 6.58, 95.38 10.58, 98.74 14.76 C102.1 18.94, 104.54 25.03, 102.62 29.36 C100.71 33.69, 93.8 37.45, 87.26 40.72 C80.72 43.99, 72.17 47.87, 63.36 48.98 C54.55 50.1, 43.19 48.98, 34.4 47.41 C25.62 45.84, 16.25 43.2, 10.63 39.56 C5.02 35.93, 1.5 29.87, 0.72 25.6 C-0.06 21.33, 1.78 17.81, 5.97 13.94 C10.15 10.07, 16.75 4.79, 25.81 2.37 C34.87 -0.05, 53.78 -0.35, 60.33 -0.57 C66.87 -0.78, 65.42 0.41, 65.1 1.08" stroke="#2f9e44" stroke-width="1.5" fill="none" stroke-dasharray="8 9"></path></g><g transform="translate(349.8267297476589 196.61863446562296) rotate(0 14.29998779296875 12.5)"><text x="14.29998779296875" y="0" font-family="Virgil, Segoe UI Emoji" font-size="20px" fill="#2f9e44" text-anchor="middle" style="white-space: pre;" direction="ltr" dominant-baseline="text-before-edge">.jtl</text></g><g stroke-linecap="round"><g transform="translate(473.6614161967334 166.1393363921843) rotate(0 -31.159686689113244 10.143226561668143)"><path d="M-0.41 0.78 C-10.93 4.19, -51.69 16.24, -61.91 19.5" stroke="#1e1e1e" stroke-width="1.5" fill="none" stroke-dasharray="8 9"></path></g><g transform="translate(473.6614161967334 166.1393363921843) rotate(0 -31.159686689113244 10.143226561668143)"><path d="M-36.66 1.14 C-47.25 8.63, -55.39 16.92, -61.14 20.11" stroke="#1e1e1e" stroke-width="1.5" fill="none"></path></g><g transform="translate(473.6614161967334 166.1393363921843) rotate(0 -31.159686689113244 10.143226561668143)"><path d="M-30.65 20.76 C-43.48 20.39, -54.03 20.83, -61.14 20.11" stroke="#1e1e1e" stroke-width="1.5" fill="none"></path></g></g><mask></mask><g stroke-linecap="round"><g transform="translate(420.23019172799104 223.18865610361365) rotate(0 48.5841538373831 1.7834209988852194)"><path d="M0.3 -0.02 C14.89 -2.89, 72.4 -19.93, 88.12 -16.51 C103.84 -13.08, 93.3 14.5, 94.62 20.52" stroke="#1e1e1e" stroke-width="1.5" fill="none" stroke-dasharray="8 9"></path></g><g transform="translate(420.23019172799104 223.18865610361365) rotate(0 48.5841538373831 1.7834209988852194)"><path d="M89.86 2.73 C92.25 7.84, 93.36 16.49, 93.29 21.93" stroke="#1e1e1e" stroke-width="1.5" fill="none"></path></g><g transform="translate(420.23019172799104 223.18865610361365) rotate(0 48.5841538373831 1.7834209988852194)"><path d="M102.82 4 C100.68 8.71, 97.26 16.91, 93.29 21.93" stroke="#1e1e1e" stroke-width="1.5" fill="none"></path></g></g><mask></mask><g transform="translate(139.33827852100217 65.90926701257698) rotate(0 23.119972229003906 12.5)"><text x="0" y="0" font-family="Virgil, Segoe UI Emoji" font-size="20px" fill="#1e1e1e" text-anchor="start" style="white-space: pre;" direction="ltr" dominant-baseline="text-before-edge">input</text></g><g transform="translate(136.33827852100217 409.90926701257695) rotate(0 33.12995910644531 12.5)"><text x="0" y="0" font-family="Virgil, Segoe UI Emoji" font-size="20px" fill="#1e1e1e" text-anchor="start" style="white-space: pre;" direction="ltr" dominant-baseline="text-before-edge">output</text></g></svg>